#N canvas 100 100 695 340 12;
#X text 15 10 giromin.peak — detector de picos locais;
#X text 15 28 Uso: [giromin.peak THRESHOLD DEBOUNCE_MS] Inlets frios: threshold (2o)\\\, debounce_ms (3o), f 91;
#X text 15 46 Emite peak_val ao detectar pico. Emite 0 apos debounce_ms. Mensagem: reset, f 81;
#X text 15 73 --- ENTRADA (mova o slider rapidamente) ---;
#X obj 15 91 hsl 200 15 0 1 0 0 empty empty empty -2 -8 0 10 #dcdcdc #000000 #000000 0 0;
#X floatatom 225 91 8 0 1 0 - - - 0;
#X text 15 126 --- PARAMETROS ---;
#X text 15 146 threshold;
#X floatatom 15 164 6 0 1 0 - - - 0;
#X text 94 146 debounce ms;
#X floatatom 95 164 6 0 0 0 - - - 0;
#X msg 15 199 reset;
#X text 15 269 --- SAIDA ---;
#X floatatom 15 287 8 0 1 0 - - - 0;
#X obj 89 287 else/display;
#X text 15 312 peak_val no momento do pico (0-1)\\\, 0 apos debounce_ms;
#X obj 15 234 giromin.peak 0.2 1000;
#X connect 4 0 5 0;
#X connect 4 0 16 0;
#X connect 8 0 16 1;
#X connect 10 0 16 2;
#X connect 11 0 16 0;
#X connect 16 0 13 0;
#X connect 16 0 14 0;
