#N canvas 194 138 900 590 12;
#X declare -lib else;
#X obj 15 60 hsl 200 15 0 1 0 0 empty empty empty -2 -8 0 10 #dcdcdc #000000 #000000 0 0;
#X floatatom 225 60 8 0 1 0 - - - 0;
#X text 15 93 --- GIROMIN.PEAK (threshold\\\, debounce ms) ---;
#X text 15 148 --- PARAMETROS ---;
#X text 79 165 threshold;
#X floatatom 15 207 6 0 1 0 - - - 0;
#X text 235 165 debounce ms;
#X text 15 250 --- SAIDA (pico norm 0-1) ---;
#X floatatom 15 270 8 0 1 0 - - - 0;
#X obj 100 270 else/display;
#X text 15 10 GIROMIN - Gesto 4;
#X obj 15 30 r giromin-25-a-x;
#X obj 15 382 nbx 3 14 0 127 0 1 empty empty empty 0 -8 0 10 #dcdcdc #000000 #000000 63 256;
#X obj 100 382 nbx 3 14 1 16 0 1 empty empty empty 0 -8 0 10 #dcdcdc #000000 #000000 7 256;
#X text 15 362 pitch;
#X text 100 362 ch;
#X obj 15 183 else/initmess 0.2;
#X text 15 308 --- MIDI NOTE OUT ---;
#X text 520 148 --- PLAYER ---;
#X obj 520 168 bng 19 250 50 0 empty empty empty 0 -10 0 12 #fcfcfc #000000 #000000;
#X text 520 205 --- TRECHO DE REPRODUCAO ---;
#X text 520 230 inicio;
#X obj 570 230 hsl 150 15 0 1 0 1 empty empty empty -2 -8 0 10 #dcdcdc #000000 #000000 0 0;
#X floatatom 730 245 5 0 0 0 - - - 0;
#X text 520 260 fim;
#X obj 570 262 hsl 150 15 0 1 0 1 empty empty empty -2 -8 0 10 #dcdcdc #000000 #000000 14900 1;
#X floatatom 708 275 5 0 0 0 - - - 0;
#X obj 574 295 else/pack2 0 1;
#X msg 575 319 range \$1 \$2;
#X text 513 562 --- SAIDA ---;
#X obj 680 558 dac~;
#X obj 684 527 *~ 0.8;
#X text 520 10 --- SAMPLER ---;
#X msg 520 83 open;
#X text 566 83 clique para abrir arquivo de audio;
#X msg 576 113 hide;
#X msg 632 113 info;
#X msg 520 113 show;
#X text 520 30 --- CARREGAR SAMPLE ---;
#X msg 518 302 sr \$2;
#X obj 520 342 else/tabplayer~ giromin-buf-4;
#X obj 300 340 t b f;
#X floatatom 680 430 5 0 0 0 - - - 0;
#X obj 520 455 else/gain~ 1 0 20 0 1;
#A saved;
#X obj 537 396 hsl 150 15 0 1 0 1 empty empty empty -2 -8 0 10 #dcdcdc #000000 #000000 14900 1;
#X msg 680 460 set \$1;
#X obj 300 270 moses 0.0001;
#X floatatom 165 204 6 0 0 0 - - - 0;
#N canvas 353 386 450 300 note-out 0;
#X obj 91 238 noteout 1;
#X obj 81 205 else/pack2 f f f;
#X obj 47 29 inlet;
#X obj 189 26 inlet;
#X obj 301 24 inlet;
#X obj 189 93 expr int($f1*127);
#X text 50 11 nota;
#X text 185 4 vel;
#X text 298 2 chan;
#X msg 253 172 set \$1;
#X connect 1 0 0 0;
#X connect 2 0 1 0;
#X connect 3 0 5 0;
#X connect 4 0 9 0;
#X connect 5 0 1 1;
#X connect 9 0 1 2;
#X restore 15 328 pd note-out;
#X obj 395 270 tgl 19 0 empty empty empty 0 -6 0 8 #dfdfdf #000000 #000000 0 1;
#X obj 300 305 spigot;
#X obj 165 183 else/initmess 100;
#X obj 15 113 giromin.peak 0.2 100;
#X text 292 236 --- PEGA SÓ DISPAROS (>0)---;
#X obj 383 181 else/initmess 1;
#X text 429 464 Ganho em db;
#X obj 375 124;
#X obj 763 9 declare -lib else;
#X obj 520 50 else/sample~ giromin-buf-4 samples/808.wav;
#X obj 792 618 else/scope~ 184 115 5 3 128 -1 1 0 0 0 0 32 32 32 187 187 187 159 159 159 0 empty;
#X text 868 552 number of samples per line & number of lines in buffer, f 27;
#X text 834 584 samples per line;
#X listbox 789 557 10 0 0 0 - - - 12;
#X obj 789 530 else/initmess 5 128;
#X connect 0 0 1 0;
#X connect 0 0 52 0;
#X connect 5 0 52 1;
#X connect 8 0 46 0;
#X connect 8 0 48 1;
#X connect 11 0 0 0;
#X connect 12 0 48 0;
#X connect 13 0 48 2;
#X connect 16 0 5 0;
#X connect 19 0 40 0;
#X connect 22 0 23 0;
#X connect 22 0 27 0;
#X connect 25 0 26 0;
#X connect 25 0 27 1;
#X connect 27 0 28 0;
#X connect 28 0 40 0;
#X connect 31 0 30 0;
#X connect 31 0 30 1;
#X connect 31 0 59 0;
#X connect 33 0 58 0;
#X connect 35 0 58 0;
#X connect 36 0 58 0;
#X connect 37 0 58 0;
#X connect 39 0 40 0;
#X connect 40 0 43 0;
#X connect 41 0 19 0;
#X connect 41 1 44 0;
#X connect 42 0 45 0;
#X connect 43 0 31 0;
#X connect 44 0 42 0;
#X connect 45 0 43 0;
#X connect 46 1 50 0;
#X connect 47 0 52 2;
#X connect 49 0 50 1;
#X connect 50 0 41 0;
#X connect 51 0 47 0;
#X connect 52 0 8 0;
#X connect 52 0 9 0;
#X connect 54 0 49 0;
#X connect 58 0 39 0;
#X connect 62 0 59 0;
#X connect 63 0 62 0;
