#N canvas 100 100 820 310 12;
#X declare -path ../pd-externals;
#X declare -path ../pd-externals;
#X declare -path ../pd-externals;
#X declare -path ../pd-externals;
#X declare -path ../pd-externals;
#X declare -path ../pd-externals;
#X declare -path ../pd-externals;
#X declare -path ../pd-externals;
#X declare -path ../pd-externals;
#X declare -path ../pd-externals;
#X declare -path ../pd-externals;
#X declare -path ../pd-externals;
#X declare -lib else;
#X declare -path ../pd-externals;
#X text 15 10 GIROMIN - Gesto 1;
#X text 15 28 Euler e botao para MIDI CC e Nota. Ajuste IDs e CCs conforme necessario.;
#X text 15 58 --- E1 -> CC MIDI 1 ---;
#X obj 15 78 r giromin-\$1-e1;
#X obj 15 98 hsl 200 15 -1 1 0 0 empty empty empty -2 -8 0 10 #dcdcdc #000000 #000000 0 0;
#X floatatom 225 113 8 0 0 0 - - - 0;
#X obj 12 122 giromin.map -1 1;
#X msg 15 153 invert;
#X msg 75 153 autorange 1;
#X msg 170 153 autorange 0;
#X floatatom 14 263 8 0 1 0 - - - 0;
#X text 446 62 --- B1 -> NOTA MIDI ---;
#X obj 446 82 r giromin-\$1-b1;
#X obj 446 140 > 0.5;
#X text 804 62 --- E2 -> CC MIDI 2 ---;
#X obj 804 82 r giromin-\$1-e2;
#X obj 804 102 hsl 200 15 -1 1 0 0 empty empty empty -2 -8 0 10 #dcdcdc #000000 #000000 0 0;
#X floatatom 1014 117 8 0 0 0 - - - 0;
#X obj 804 137 giromin.map -1 1;
#X msg 804 167 invert;
#X msg 864 167 autorange 1;
#X msg 959 167 autorange 0;
#X floatatom 804 197 8 0 1 0 - - - 0;
#X obj 804 222 expr int($f1*127);
#X floatatom 804 247 5 0 127 0 - - - 0;
#X obj 804 272 ctlout 2 1;
#X obj 16 180 hsl 200 15 -1 1 0 1 empty empty empty -2 -8 0 10 #dcdcdc #000000 #000000 4700 0;
#X floatatom 226 182 8 0 0 0 - - - 0;
#X obj 16 201 hsl 200 15 -1 1 0 1 empty empty empty -2 -8 0 10 #dcdcdc #000000 #000000 14400 0;
#X floatatom 226 202 8 0 0 0 - - - 0;
#X text 294 182 min;
#X text 293 205 max;
#X obj 16 242 hsl 200 15 0 1 0 0 empty empty empty -2 -8 0 10 #dcdcdc #000000 #000000 0 0;
#X obj 398 297 nbx 3 14 0 127 0 1 empty empty empty 0 -8 0 10 #dcdcdc #000000 #000000 47 256;
#X obj 578 248 nbx 3 14 1 16 0 1 empty empty empty 0 -8 0 10 #dcdcdc #000000 #000000 1 256;
#X text 452 315 --- MIDI NOTE OUT ---;
#N canvas 353 386 450 300 note-out 0;
#X obj 91 238 noteout 1;
#X obj 81 205 else/pack2 f f f;
#X obj 47 29 inlet;
#X obj 189 26 inlet;
#X obj 301 24 inlet;
#X obj 189 93 expr int($f1*127);
#X text 50 11 nota;
#X text 185 4 vel;
#X text 298 2 chan;
#X msg 253 172 set \$1;
#X obj 600 7 declare -path ../pd-externals;
#X obj 600 7 declare -path ../pd-externals;
#X obj 600 7 declare -path ../pd-externals;
#X obj 600 7 declare -path ../pd-externals;
#X obj 600 7 declare -path ../pd-externals;
#X obj 600 7 declare -path ../pd-externals;
#X connect 1 0 0 0;
#X connect 2 0 1 0;
#X connect 3 0 5 0;
#X connect 4 0 9 0;
#X connect 5 0 1 1;
#X connect 9 0 1 2;
#X restore 447 335 pd note-out;
#X f 19;
#X floatatom 446 168 5 0 0 0 - - - 0;
#X obj 490 114 tgl 19 0 empty empty empty 0 -10 0 12 #fcfcfc #000000 #000000 0 1;
#X floatatom 659 207 8 0 1 0 - - - 0;
#X obj 448 208 hsl 200 15 0 1 0 1 empty empty empty -2 -8 0 10 #dcdcdc #000000 #000000 7000 0;
#X obj 445 258 * 1;
#X text 441 186 intensidade da nota (vel);
#X text 398 277 nota;
#X text 578 228 canal;
#N canvas 295 328 450 300 cc-out 0;
#X obj 101 113 expr int($f1*127);
#X obj 124 224 else/pack2 f f f;
#X obj 100 32 inlet;
#X obj 271 37 inlet;
#X obj 328 34 inlet;
#X obj 124 258 ctlout 1 1;
#X obj 101 162 change;
#X obj 600 7 declare -path ../pd-externals;
#X obj 600 7 declare -path ../pd-externals;
#X obj 600 7 declare -path ../pd-externals;
#X obj 600 7 declare -path ../pd-externals;
#X obj 600 7 declare -path ../pd-externals;
#X obj 600 7 declare -path ../pd-externals;
#X connect 0 0 6 0;
#X connect 1 0 5 0;
#X connect 2 0 0 0;
#X connect 3 0 1 1;
#X connect 4 0 1 2;
#X connect 6 0 1 0;
#X restore 18 305 pd cc-out;
#X obj 55 382 nbx 3 14 0 127 0 1 empty empty empty 0 -8 0 10 #dcdcdc #000000 #000000 0 256;
#X obj 100 382 nbx 3 14 1 16 0 1 empty empty empty 0 -8 0 10 #dcdcdc #000000 #000000 7 256;
#X text 100 362 ch;
#X text 55 362 cc;
#X obj 942 16 declare -lib else;
#X obj 582 13 declare -path ../pd-externals;
#X obj 288 345 outlet;
#X obj 143 320 outlet~;
#X connect 3 0 4 0;
#X connect 4 0 5 0;
#X connect 4 0 6 0;
#X connect 6 0 10 0;
#X connect 6 0 32 0;
#X connect 6 1 26 0;
#X connect 6 2 28 0;
#X connect 7 0 6 0;
#X connect 8 0 6 0;
#X connect 9 0 6 0;
#X connect 10 0 45 0;
#X connect 10 0 52 0;
#X connect 12 0 13 0;
#X connect 13 0 37 0;
#X connect 15 0 16 0;
#X connect 16 0 17 0;
#X connect 16 0 18 0;
#X connect 18 0 22 0;
#X connect 19 0 18 0;
#X connect 20 0 18 0;
#X connect 21 0 18 0;
#X connect 22 0 23 0;
#X connect 23 0 24 0;
#X connect 24 0 25 0;
#X connect 26 0 27 0;
#X connect 26 0 6 1;
#X connect 28 0 29 0;
#X connect 28 0 6 2;
#X connect 33 0 36 0;
#X connect 34 0 36 2;
#X connect 37 0 41 0;
#X connect 38 0 13 0;
#X connect 39 0 41 1;
#X connect 40 0 39 0;
#X connect 41 0 36 1;
#X connect 41 0 52 0;
#X connect 46 0 45 1;
#X connect 47 0 45 2;
