#N canvas 542 360 970 510 12;
#X declare -path ../pd-externals;
#X text 15 10 GIROMIN - Gesto 2;
#X text 15 28 Sample com velocidade (E1) e volume (E2) controlados por Euler.;
#X text 15 58 --- CARREGAR ---;
#X obj 15 78 else/sample~ giromin-buf-2 samples/808.wav;
#X msg 15 108 open;
#X msg 80 108 show;
#X msg 131 108 hide;
#X msg 182 108 info;
#X obj 400 78 else/display;
#X text 15 148 --- PLAYER ---;
#X obj 15 168 bng 19 250 50 0 empty empty empty 0 -10 0 12 #fcfcfc #000000 #000000;
#X text 44 168 disparo;
#X obj 100 168 tgl 19 0 empty empty empty 0 -10 0 12 #fcfcfc #000000 #000000 0 1;
#X text 129 168 loop;
#X msg 100 193 loop \$1;
#X text 15 225 --- TRECHO ---;
#X text 15 245 inicio;
#X obj 65 245 hsl 150 15 0 1 0 1 empty empty empty -2 -8 0 10 #dcdcdc #000000 #000000 0 0;
#X floatatom 225 260 5 0 0 0 - - - 0;
#X text 15 275 fim;
#X obj 59 275 hsl 150 15 0 1 0 1 empty empty empty -2 -8 0 10 #dcdcdc #000000 #000000 14900 1;
#X floatatom 225 290 5 0 0 0 - - - 0;
#X obj 15 310 else/pack2 0 1;
#X msg 136 310 range \$1 \$2;
#X obj 15 380 else/tabplayer~ giromin-buf-2;
#X text 450 148 --- VELOCIDADE (E1) ---;
#X obj 450 168 r giromin-\$1-e1;
#X obj 450 188 hsl 200 15 -1 1 0 0 empty empty empty -2 -8 0 10 #dcdcdc #000000 #000000 0 0;
#X floatatom 660 188 8 0 0 0 - - - 0;
#X obj 450 218 giromin.map -1 1;
#X msg 450 248 invert;
#X msg 510 248 autorange 1;
#X msg 605 248 autorange 0;
#X floatatom 450 278 8 0 1 0 - - - 0;
#X obj 450 308 expr $f1 * 175 + 25;
#X floatatom 450 333 8 0 0 0 - - - 0;
#X msg 450 358 speed \$1;
#X text 720 148 --- VOLUME (E2) ---;
#X obj 720 168 r giromin-\$1-e2;
#X obj 720 188 hsl 200 15 -1 1 0 0 empty empty empty -2 -8 0 10 #dcdcdc #000000 #000000 0 0;
#X floatatom 930 188 8 0 0 0 - - - 0;
#X obj 720 218 giromin.map -1 1;
#X msg 720 248 invert;
#X msg 780 248 autorange 1;
#X msg 875 248 autorange 0;
#X floatatom 720 278 8 0 1 0 - - - 0;
#X text 15 420 --- SAIDA ---;
#X obj 15 440 *~;
#X obj 15 470 dac~;
#X obj 153 467 outlet~;
#X obj 751 13 declare -path ../pd-externals;
#X obj 325 451 outlet;
#X connect 3 0 8 0;
#X connect 4 0 24 0;
#X connect 5 0 24 0;
#X connect 6 0 24 0;
#X connect 7 0 24 0;
#X connect 10 0 24 0;
#X connect 12 0 14 0;
#X connect 14 0 24 0;
#X connect 17 0 18 0;
#X connect 17 0 22 0;
#X connect 20 0 21 0;
#X connect 20 0 22 1;
#X connect 22 0 23 0;
#X connect 23 0 24 0;
#X connect 24 0 47 0;
#X connect 26 0 27 0;
#X connect 27 0 28 0;
#X connect 27 0 29 0;
#X connect 29 0 33 0;
#X connect 30 0 29 0;
#X connect 31 0 29 0;
#X connect 32 0 29 0;
#X connect 33 0 34 0;
#X connect 34 0 35 0;
#X connect 35 0 36 0;
#X connect 36 0 24 0;
#X connect 38 0 39 0;
#X connect 39 0 40 0;
#X connect 39 0 41 0;
#X connect 41 0 45 0;
#X connect 42 0 41 0;
#X connect 43 0 41 0;
#X connect 44 0 41 0;
#X connect 45 0 47 1;
#X connect 47 0 48 0;
#X connect 47 0 48 1;
#X connect 47 0 49 0;
