#N canvas 247 50 1000 720 12;
#X declare -path ../pd-externals;
#X declare -path ../pd-externals;
#X declare -path ../pd-externals;
#X declare -path ../pd-externals;
#X declare -path ../pd-externals;
#X declare -path ../pd-externals;
#X declare -path ../pd-externals;
#X declare -path ../pd-externals;
#X declare -path ../pd-externals;
#X declare -path ../pd-externals;
#X declare -path ../pd-externals;
#X declare -lib else;
#X declare -path ../pd-externals;
#X text 366 324 --- PLAYER ---;
#X obj 366 374 bng 19 250 50 0 empty empty empty 0 -10 0 12 #fcfcfc #000000 #000000;
#X text 366 479 --- TRECHO DE REPRODUCAO ---;
#X text 366 504 inicio;
#X obj 416 504 hsl 150 15 0 1 0 1 empty empty empty -2 -8 0 10 #dcdcdc #000000 #000000 0 0;
#X floatatom 576 519 5 0 0 0 - - - 0;
#X text 366 534 fim;
#X obj 417 530 hsl 150 15 0 1 0 1 empty empty empty -2 -8 0 10 #dcdcdc #000000 #000000 14900 1;
#X floatatom 554 549 5 0 0 0 - - - 0;
#X obj 366 569 else/pack2 0 1;
#X msg 491 569 range \$1 \$2;
#X obj 396 404 tgl 19 0 empty empty empty 0 -10 0 12 #fcfcfc #000000 #000000 0 1;
#X msg 396 434 loop \$1;
#X obj 15 521 clip 0 1;
#X text 15 650 --- SAIDA ---;
#X obj 32 812 dac~;
#X obj 32 787 *~ 0.8;
#X text 15 30 --- VOLUME (Quantidade de Movimento) ---;
#X text 15 295 --- FILTRO DE SUAVIZACAO ---;
#X obj 14 315 else/knob 33 1 1000 0 116.036 empty empty #dfdfdf #7c7c7c #000000 1 0 0 0 1 320 0 0 1 empty empty 0 12 6 -15 1 1 0 0;
#X floatatom 15 358 5 0 0 0 - - - 0;
#X obj 60 315 else/knob 33 1 1000 0 135.532 empty empty #dfdfdf #7c7c7c #000000 1 0 0 0 1 320 0 0 1 empty empty 0 12 6 -15 1 1 0 0;
#X floatatom 60 358 5 0 0 0 - - - 0;
#X text 12 378 attack;
#X text 57 378 decay;
#X obj 366 604 else/tabplayer~ giromin-buf-3;
#X text 330 30 --- SAMPLER ---;
#X obj 446 349 else/initmess 1;
#X text 15 10 GIROMIN - Gesto 3;
#X msg 283 70 open;
#X text 376 90 clique para abrir arquivo de audio;
#X msg 410 120 hide;
#X msg 456 120 info;
#X msg 364 120 show;
#X text 330 50 --- CARREGAR SAMPLE ---;
#X floatatom 832 428 5 0 0 0 - - - 0;
#X text 75 83 absoluto;
#X text 75 103 bidirecional;
#X text 75 123 somente horario;
#X text 75 143 somente anti-horario;
#X obj 50 85 vradio 19 1 1 4 empty empty empty 0 -10 0 12 #fcfcfc #000000 #000000 0;
#X floatatom 15 255 8 0 0 0 - - - 0;
#N canvas -16 451 497 300 taxa-de-rotacao 0;
#X obj 27 113 expr if($f2==0\\\, abs($f1)\\\, if($f2==1\\\, ($f1+1)/2\\\, if($f2==2\\\, if($f1>0\\\, $f1\\\, 0)\\\, if($f1<0\\\, -$f1\\\, 0))));
#X obj 26 68 inlet;
#X obj 183 69 inlet;
#X obj 26 263 outlet;
#X obj 26 207 giromin.suavizar 100 622;
#X obj 339 167 inlet;
#X obj 391 168 inlet;
#X obj 28 235 * 1;
#X obj 441 165 inlet;
#X text 199 208 Filtro EMA -> quantos passos para subir e quantos passos para descer (responsividade de attack e decay);
#X obj 780 7 declare -path ../pd-externals;
#X obj 780 7 declare -path ../pd-externals;
#X obj 780 7 declare -path ../pd-externals;
#X obj 780 7 declare -path ../pd-externals;
#X obj 780 7 declare -path ../pd-externals;
#X obj 780 7 declare -path ../pd-externals;
#X obj 780 7 declare -path ../pd-externals;
#X obj 780 7 declare -path ../pd-externals;
#X connect 0 0 4 0;
#X connect 1 0 0 0;
#X connect 2 0 0 1;
#X connect 4 0 7 0;
#X connect 5 0 4 1;
#X connect 6 0 4 2;
#X connect 7 0 3 0;
#X connect 8 0 7 1;
#X restore 15 400 pd taxa-de-rotacao;
#N canvas 217 293 450 300 volume-em-db 0;
#X obj 50 146 else/dbgain~;
#X obj 127 83 else/rescale -100 0;
#X floatatom 128 104 5 0 0 0 - - - 0;
#X obj 133 28 else/initmess in 0 1;
#X obj 780 7 declare -path ../pd-externals;
#X obj 780 7 declare -path ../pd-externals;
#X obj 780 7 declare -path ../pd-externals;
#X connect 1 0 2 0;
#X connect 2 0 0 1;
#X connect 3 0 1 0;
#X restore 58 897 pd volume-em-db;
#X msg 576 604 sr \$2;
#X obj 366 349 loadbang;
#X obj 15 81 vsl 19 162 -1 1 0 0 empty empty empty 0 -9 0 12 #dfdfdf #000000 #000000 0 1;
#X obj 15 548 hsl 200 15 0 1 0 0 empty empty empty -2 -8 0 10 #dcdcdc #000000 #000000 0 0;
#X floatatom 239 548 8 0 0 0 - - - 0;
#X obj 159 313 else/knob 33 1 10 0 2.476 empty empty #dfdfdf #7c7c7c #000000 1 0 0 0 1 320 0 0 1 empty empty 0 12 6 -15 1 1 0 0;
#X floatatom 159 356 5 0 0 0 - - - 0;
#X text 194 323 --- Ganho ---;
#X text 156 376 gain;
#X text 682 8 --- VELOCIDADE (Euler E3) ---;
#X text 366 454 Deixar sempre tocando;
#X text 420 405 Sempre em loop;
#X floatatom 15 435 8 0 0 0 - - - 0;
#X obj 175 55 metro 5;
#X obj 145 55 tgl 19 0 empty empty empty 0 -10 0 12 #fcfcfc #000000 #000000 0 1;
#X obj 682 333 hsl 150 15 1 30 0 0 empty empty empty -2 -8 0 10 #dcdcdc #000000 #000000 0 0;
#X floatatom 842 333 5 0 0 0 - - - 0;
#X text 682 48 --- ENTRADA ---;
#X obj 682 173 hsl 150 15 -1 1 0 0 empty empty empty -2 -8 0 10 #dcdcdc #000000 #000000 0 0;
#X floatatom 842 173 5 0 0 0 - - - 0;
#X obj 682 203 hsl 150 15 -1 1 0 1 empty empty empty -2 -8 0 10 #dcdcdc #000000 #000000 9774 0;
#X floatatom 842 203 5 0 0 0 - - - 0;
#X obj 682 233 hsl 150 15 -1 1 0 1 empty empty empty -2 -8 0 10 #dcdcdc #000000 #000000 12604 0;
#X floatatom 842 233 5 0 0 0 - - - 0;
#X text 900 171 input [-1:1];
#X text 900 201 min-input;
#X text 900 231 max-input;
#X msg 712 298 autorange \$1;
#X obj 683 296 tgl 19 0 empty empty empty 0 -10 0 12 #fcfcfc #000000 #000000 0 1;
#X obj 682 73 hsl 150 15 -1 1 0 0 empty empty empty -2 -8 0 10 #dcdcdc #000000 #000000 0 0;
#X floatatom 842 73 5 0 0 0 - - - 0;
#X msg 683 101 centro;
#X msg 812 298 invert;
#X msg 90 255 0;
#X obj 201 858 else/scope~ 184 115 5 3 128 -1 1 0 0 0 0 32 32 32 187 187 187 159 159 159 0 empty;
#X text 494 902 number of samples per line & number of lines in buffer, f 27;
#X text 460 934 samples per line;
#X listbox 415 907 10 0 0 0 - - - 12;
#X obj 415 880 else/initmess 5 128;
#X obj 572 445 loadbang;
#X obj 330 70 else/sample~ giromin-buf-3 samples/noise.wav;
#X obj 507 245 else/lop2~;
#X obj 101 680 nbx 5 14 100 10000 1 1 empty empty empty 0 -8 0 10 #dcdcdc #000000 #000000 40 256;
#X obj 218 725 nbx 5 14 0.1 100 1 1 empty empty empty 0 -8 0 10 #dcdcdc #000000 #000000 0.6 256;
#X msg 40 678 clear;
#X text 277 724 resonance (Q by default);
#X text 211 700 resonant/center frequency;
#X obj 28 714 else/lowpass~ 1000 0.1;
#X obj -66 627 else/crackle~;
#X obj 14 571 expr int($f1*10000 + 40);
#X obj 857 34 declare -lib else;
#X obj 282 797 outlet~;
#X obj 138 603 moses 0.01;
#X floatatom 136 627 5 0 0 0 - - - 0;
#X floatatom 191 630 5 0 0 0 - - - 0;
#X msg 14 489 0;
#X msg 116 488 1;
#X obj 17 463 moses 0.01;
#X obj 923 6 declare -path ../pd-externals;
#X obj 682 133 giromin.centro;
#X obj 729 807 outlet;
#X obj 15 55 r giromin-\$1-gx;
#X obj -56 658 noise~;
#X obj 682 28 r giromin-\$1-e2;
#X obj 682 263 giromin.map 0 1 0.6 30 10;
#X floatatom 884 273 5 0 0 0 - - - 12;
#X connect 1 0 25 0;
#X connect 4 0 5 0;
#X connect 4 0 9 0;
#X connect 7 0 8 0;
#X connect 7 0 9 1;
#X connect 9 0 10 0;
#X connect 10 0 25 0;
#X connect 11 0 12 0;
#X connect 12 0 25 0;
#X connect 13 0 47 0;
#X connect 16 0 15 0;
#X connect 16 0 15 1;
#X connect 16 0 95 0;
#X connect 16 0 78 0;
#X connect 19 0 20 0;
#X connect 20 0 42 2;
#X connect 21 0 22 0;
#X connect 22 0 42 3;
#X connect 27 0 11 0;
#X connect 29 0 84 0;
#X connect 31 0 84 0;
#X connect 32 0 84 0;
#X connect 33 0 84 0;
#X connect 35 0 87 0;
#X connect 40 0 42 1;
#X connect 41 0 42 0;
#X connect 42 0 56 0;
#X connect 44 0 25 0;
#X connect 45 0 1 0;
#X connect 45 0 4 0;
#X connect 45 0 7 0;
#X connect 46 0 41 0;
#X connect 47 0 93 0;
#X connect 47 0 48 0;
#X connect 49 0 50 0;
#X connect 50 0 42 4;
#X connect 56 0 96 0;
#X connect 56 0 101 0;
#X connect 57 0 41 0;
#X connect 58 0 57 0;
#X connect 59 0 60 0;
#X connect 62 0 63 0;
#X connect 62 0 108 0;
#X connect 64 0 65 0;
#X connect 64 0 108 1;
#X connect 66 0 67 0;
#X connect 66 0 108 2;
#X connect 71 0 108 0;
#X connect 72 0 71 0;
#X connect 73 0 74 0;
#X connect 73 0 103 0;
#X connect 75 0 103 0;
#X connect 76 0 108 0;
#X connect 77 0 41 0;
#X connect 81 0 78 0;
#X connect 82 0 81 0;
#X connect 83 0 4 0;
#X connect 83 0 7 0;
#X connect 84 0 44 0;
#X connect 86 0 91 1;
#X connect 87 0 91 2;
#X connect 88 0 91 0;
#X connect 91 0 16 0;
#X connect 92 0 91 0;
#X connect 93 0 86 0;
#X connect 96 0 97 0;
#X connect 96 1 98 0;
#X connect 99 0 13 0;
#X connect 101 0 99 0;
#X connect 101 1 13 0;
#X connect 101 1 100 0;
#X connect 103 0 62 0;
#X connect 105 0 46 0;
#X connect 107 0 73 0;
#X connect 108 0 59 0;
#X connect 108 0 35 0;
#X connect 108 1 64 0;
#X connect 108 2 66 0;
#X connect 109 0 108 4;
