#N canvas 910 64 602 741 12;
#X declare -path ../pd-externals;
#X text 15 10 GIROMIN - Patch Principal;
#X text 15 30 Abra giromin-osc.pd em paralelo para receber OSC do sensor.;
#X floatatom 51 218 8 -4 4 2 yaw - - 0;
#X floatatom 180 223 8 -4 4 2 roll - - 0;
#X floatatom 293 223 8 -4 4 2 pitch - - 0;
#X text 26 326 --- ACELEROMETRO ---;
#X obj 26 351 r giromin-\$1-ax;
#X obj 144 351 r giromin-\$1-ay;
#X obj 264 351 r giromin-\$1-az;
#X text 26 412 ax;
#X text 144 412 ay;
#X text 264 412 az;
#X floatatom 26 427 8 -2 2 0 - - - 0;
#X floatatom 144 427 8 -2 2 0 - - - 0;
#X floatatom 264 427 8 -2 2 0 - - - 0;
#X text 24 518 --- GIROSCOPIO ---;
#X obj 24 543 r giromin-\$1-gx;
#X obj 147 543 r giromin-\$1-gy;
#X obj 266 543 r giromin-\$1-gz;
#X text 24 612 gx;
#X text 148 612 gy;
#X text 266 612 gz;
#X text 27 700 --- BOTOES ---;
#X obj 27 725 r giromin-\$1-b1;
#X obj 158 727 r giromin-\$1-b2;
#X text 60 750 b1;
#X text 178 755 b2;
#X obj 26 751 tgl 19 0 empty empty empty 0 -10 0 12 #fcfcfc #000000 #000000 0 1;
#X obj 157 757 tgl 19 0 empty empty empty 0 -10 0 12 #fcfcfc #000000 #000000 0 1;
#X obj 27 391 / 1;
#X obj 144 390 / 1;
#X obj 265 388 / 1;
#X floatatom 25 629 8 -2 2 0 - - - 0;
#X floatatom 146 628 8 -2 2 0 - - - 0;
#X floatatom 266 627 8 -2 2 0 - - - 0;
#X obj 26 593 / 1;
#X obj 149 592 / 1;
#X obj 268 590 / 1;
#X obj 460 222 else/range;
#X obj 461 252 else/display;
#X obj 527 253 else/display;
#X obj 18 251 hsl 75 19 -1 1 0 0 empty empty empty -2 -10 0 12 #fcfcfc #000000 #000000 0 1;
#X obj 134 251 hsl 75 19 -1 1 0 0 empty empty empty -2 -10 0 12 #fcfcfc #000000 #000000 0 1;
#X obj 257 253 hsl 75 19 -1 1 0 0 empty empty empty -2 -10 0 12 #fcfcfc #000000 #000000 0 1;
#X obj 29 456 hsl 75 19 -1 1 0 0 empty empty empty -2 -10 0 12 #fcfcfc #000000 #000000 0 1;
#X obj 135 455 hsl 75 19 -1 1 0 0 empty empty empty -2 -10 0 12 #fcfcfc #000000 #000000 0 1;
#X obj 265 457 hsl 75 19 -1 1 0 0 empty empty empty -2 -10 0 12 #fcfcfc #000000 #000000 0 1;
#X obj 15 115 r giromin-\$1-e1;
#X obj 132 116 r giromin-\$1-e2;
#X obj 251 120 r giromin-\$1-e3;
#X obj 27 657 hsl 75 19 -1 1 0 0 empty empty empty -2 -10 0 12 #fcfcfc #000000 #000000 0 1;
#X obj 149 656 hsl 75 19 -1 1 0 0 empty empty empty -2 -10 0 12 #fcfcfc #000000 #000000 0 1;
#X obj 271 658 hsl 75 19 -1 1 0 0 empty empty empty -2 -10 0 12 #fcfcfc #000000 #000000 0 1;
#X obj 382 6 declare -path ../pd-externals;
#X msg 455 105 reset;
#X obj 132 174 giromin.centro;
#X msg 157 142 centro;
#X obj 15 174 giromin.centro;
#X msg 38 142 centro;
#X text 15 90 --- ORIENTACAO (Euler ZXY) ---;
#X connect 2 0 41 0;
#X connect 6 0 29 0;
#X connect 7 0 30 0;
#X connect 8 0 31 0;
#X connect 12 0 44 0;
#X connect 13 0 45 0;
#X connect 14 0 46 0;
#X connect 16 0 35 0;
#X connect 17 0 36 0;
#X connect 18 0 37 0;
#X connect 23 0 27 0;
#X connect 24 0 28 0;
#X connect 29 0 12 0;
#X connect 30 0 13 0;
#X connect 31 0 14 0;
#X connect 32 0 50 0;
#X connect 33 0 51 0;
#X connect 34 0 52 0;
#X connect 35 0 32 0;
#X connect 36 0 33 0;
#X connect 37 0 34 0;
#X connect 38 0 39 0;
#X connect 38 1 40 0;
#X connect 42 0 3 0;
#X connect 47 0 57 0;
#X connect 48 0 55 0;
#X connect 49 0 43 0;
#X connect 49 0 4 0;
#X connect 54 0 38 0;
#X connect 55 0 42 0;
#X connect 56 0 55 0;
#X connect 57 0 41 0;
#X connect 58 0 57 0;
