#N canvas 531 266 550 430 12;
#X declare -path ../pd-externals;
#X text 15 10 TESTE: map, f 13;
#X text 15 30 Bang captura centro. Msgs: [autorange 1/0] [invert 1/0]., f 58;
#X text 11 54 --- ENTRADA ---, f 17;
#X obj 15 75 hsl 200 15 -1 1 0 0 empty empty empty -2 -8 0 10 #dcdcdc #000000 #000000 0 0;
#X floatatom 225 75 8 -1 1 0 - - - 0;
#X text 2 221 --- GIROMIN.MAP (inlets: in_min\\\, in_max) ---, f 47;
#X obj 16 247 giromin.map -1 1;
#X text 16 280 --- CONTROLES ---, f 21;
#X obj 16 297 bng 19 250 50 0 empty empty empty 0 -10 0 12 #fcfcfc #000000 #000000;
#X text 45 297 centro, f 7;
#X msg 16 332 autorange 1;
#X msg 111 332 autorange 0;
#X text 16 367 in_min, f 8;
#X floatatom 84 367 6 -1 1 0 - - - 0;
#X text 139 369 in_max, f 7;
#X floatatom 198 368 6 -1 1 0 - - - 0;
#X text 16 402 --- SAIDAS ---, f 18;
#X text 16 420 out [0\\\,1];
#X floatatom 109 420 8 0 1 0 - - - 0;
#X obj 189 420 else/display;
#X text 16 455 ar_min, f 7;
#X floatatom 109 454 8 0 0 0 - - - 0;
#X obj 184 454 else/display;
#X text 16 490 ar_max, f 8;
#X floatatom 109 489 8 0 0 0 - - - 0;
#X obj 184 489 else/display;
#X obj 18 103 hsl 200 15 -1 1 0 1 empty empty empty -2 -8 0 10 #dcdcdc #000000 #000000 3950 0;
#X floatatom 228 103 8 -1 1 0 - - - 0;
#X obj 16 131 hsl 200 15 -1 1 0 1 empty empty empty -2 -8 0 10 #dcdcdc #000000 #000000 12950 0;
#X floatatom 226 131 8 -1 1 0 - - - 0;
#X floatatom 228 160 8 -1 1 0 - - - 0;
#X obj 16 160 hsl 200 15 0 1 0 0 empty empty empty -2 -8 0 10 #dcdcdc #000000 #000000 0 0;
#X msg 149 196 0;
#X text 298 155 output [0-1];
#X text 295 73 input [-1:1];
#X text 301 104 min-input;
#X text 299 131 max-input;
#X msg 206 332 invert 1;
#X msg 373 333 center;
#X obj 400 6 declare -path ../pd-externals;
#X connect 3 0 6 0;
#X connect 3 0 4 0;
#X connect 6 0 18 0;
#X connect 6 0 31 0;
#X connect 6 1 21 0;
#X connect 6 1 26 0;
#X connect 6 2 24 0;
#X connect 6 2 28 0;
#X connect 8 0 6 0;
#X connect 10 0 6 0;
#X connect 11 0 6 0;
#X connect 18 0 19 0;
#X connect 21 0 22 0;
#X connect 24 0 25 0;
#X connect 26 0 27 0;
#X connect 26 0 6 1;
#X connect 28 0 29 0;
#X connect 28 0 6 2;
#X connect 31 0 30 0;
#X connect 32 0 6 0;
#X connect 37 0 6 0;
#X connect 38 0 6 0;
