#N canvas 674 324 678 372 12;
#X declare -lib else;
#X declare -path ../pd-externals;
#X text 15 10 GIROMIN-OSC - Receptor OSC central (porta 1333), f 48;
#X text 15 30 Adicionar [giromin-device N] para cada Giromin ativo., f 54;
#X text 15 75 --- OSC ---, f 12;
#X obj 15 95 else/osc.receive 1333;
#X obj 15 125 else/osc.route /giromin;
#X text 15 155 --- DISPOSITIVOS ATIVOS ---, f 29;
#X obj 26 182 giromin-device 25;
#X obj 226 127 print giromin-osc;
#X text 14 53 Ligar o [print giromin-osc] para visualizar no console todas as mensagens OSC recebidas, f 88;
#X obj 468 8 declare -lib else;
#X text 24 240 --- MAPEAMENTOS ATIVOS ---, f 29;
#X text 163 180 Giromin do Braço Direito;
#X text 207 215 Giromin do PREENCHER;
#X obj 394 178 giromin-visualizer 25;
#X text 505 326 Gestos do Giromin 25;
#X obj 19 322 gesto-1 25;
#X obj 150 323 gesto-2 25;
#X obj 287 323 gesto-3 25;
#X obj 410 326 gesto-4 25;
#X obj 17 494 gesto-5 N;
#X obj 145 494 gesto-6 N;
#X obj 282 494 gesto-7 N;
#X obj 405 497 gesto-8 N;
#X text 500 498 Gestos do Giromin N;
#X text 20 270 Angulos para MIDI, f 11;
#X text 399 271 Disparo de som com Gesto Percussivo, f 16;
#X text 279 270 Rotação Volume elevação pitch do som, f 15;
#X text 143 271 Disparo a partir de uma altura, f 14;
#X text 2 462 Descrever Gesto;
#X text 133 463 Descrever Gesto;
#X text 264 463 Descrever Gesto;
#X text 395 464 Descrever Gesto;
#X obj 287 367 else/scope~ 100 70 5 3 128 -1 1 0 0 0 0 32 32 32 187 187 187 159 159 159 0 empty;
#X obj 411 365 else/scope~ 100 70 5 3 128 -1 1 0 0 0 0 32 32 32 187 187 187 159 159 159 0 empty;
#X obj 151 370 else/scope~ 100 70 5 3 128 -1 1 0 0 0 0 32 32 32 187 187 187 159 159 159 0 empty;
#X obj 86 346 bng 15 250 10 0 empty empty empty 0 -10 0 12 #ffffff #00ff04 #000000;
#X obj 217 347 bng 15 250 10 0 empty empty empty 0 -10 0 12 #ffffff #00ff04 #000000;
#X obj 356 348 bng 15 250 10 0 empty empty empty 0 -10 0 12 #ffffff #00ff04 #000000;
#X obj 477 348 bng 15 250 10 0 empty empty empty 0 -10 0 12 #ffffff #00ff04 #000000;
#X obj 19 372 else/scope~ 100 70 5 3 128 -1 1 0 0 0 0 32 32 32 187 187 187 159 159 159 0 empty;
#X obj 468 31 declare -path ../pd-externals;
#X obj 17 213 giromin-device 1;
#X obj 390 214 giromin-visualizer 1;
#X connect 3 0 4 0;
#X connect 4 0 41 0;
#X connect 15 0 39 0;
#X connect 15 1 35 0;
#X connect 16 0 34 0;
#X connect 17 0 32 0;
#X connect 18 0 33 0;
#X connect 18 1 38 0;
