#N canvas 531 266 490 310 12;
#X text 15 10 MODO DE ROTACAO, f 75;
#X text 40 58 absoluto (magnitude\\\, sem direcao), f 165;
#X text 40 78 bidirecional (sobe e desce em torno de 0.5), f 220;
#X text 40 98 somente horario (rotacao positiva), f 170;
#X text 40 118 somente anti-horario (rotacao negativa), f 195;
#X text 93 151 --- ENTRADA (slider de teste) ---, f 160;
#X text 169 255 --- SAIDA [0 a 1] ---, f 105;
#X obj 15 60 vradio 19 1 0 4 empty empty empty 0 -10 0 12 #fcfcfc #000000 #000000 0;
#X obj 107 171 hsl 200 15 -1 1 0 0 empty empty empty -2 -8 0 10 #dcdcdc #000000 #000000 0 0;
#X floatatom 205 190 8 -1 1 0 - - - 0;
#X floatatom 15 255 8 0 1 0 - - - 0;
#X obj 130 255 else/display;
#N canvas 159 235 450 300 taxa-de-rotacao 0;
#X obj 35 216 expr if($f2==0\\\, abs($f1)\\\, if($f2==1\\\, ($f1+1)/2\\\, if($f2==2\\\, if($f1>0\\\, $f1\\\, 0)\\\, if($f1<0\\\, -$f1\\\, 0))));
#X obj 61 65 inlet;
#X obj 330 31 inlet;
#X obj 26 263 outlet;
#X connect 0 0 3 0;
#X connect 1 0 0 0;
#X connect 2 0 0 1;
#X restore 36 224 pd taxa-de-rotacao;
#X connect 7 0 12 1;
#X connect 8 0 9 0;
#X connect 8 0 12 0;
#X connect 12 0 10 0;
#X connect 12 0 11 0;
