#N canvas 531 266 858 560 12;
#X declare -path ../pd-externals;
#X text 15 10 GIROMIN-DEVICE - Roteador OSC por ID, f 180;
#X text 15 30 Arg \$1 = ID do dispositivo. Conectar ao outlet de [else/osc.route /giromin]., f 385;
#X text 15 55 --- ROTEAMENTO ---, f 90;
#X obj 15 70 inlet;
#X obj 15 100 else/osc.route /\$1;
#X obj 16 133 t l b;
#X obj 150 160 s giromin-active-id;
#X obj 15 190 else/osc.route /q /a /g /b1 /b2;
#X text 15 215 --- QUATERNION + EULER ---, f 130;
#X obj 15 240 s giromin-\$1-q;
#X obj 138 240 giromin.euler xzy, f 37;
#X obj 138 270 / -3.14;
#X obj 266 272 / -3.14;
#X obj 394 272 / -1.57;
#X obj 138 300 s giromin-\$1-e1;
#X obj 265 300 s giromin-\$1-e2;
#X obj 392 300 s giromin-\$1-e3;
#X text 15 330 --- ACELEROMETRO ---, f 100;
#X obj 15 350 else/osc.route /x /y /z, f 56;
#X obj 15 380 s giromin-\$1-ax;
#X obj 145 380 s giromin-\$1-ay;
#X obj 275 380 s giromin-\$1-az;
#X text 19 477 --- GIROSCOPIO ---, f 19;
#X obj 19 497 else/osc.route /x /y /z, f 56;
#X obj 19 527 s giromin-\$1-gx;
#X obj 149 527 s giromin-\$1-gy;
#X obj 279 527 s giromin-\$1-gz;
#X text 19 562 --- BOTOES ---, f 15;
#X obj 19 582 s giromin-\$1-b1;
#X obj 149 582 s giromin-\$1-b2;
#X msg 150 134 \$1;
#X obj 434 584 s giromin-\$1-g;
#X obj 432 527 else/pack2 f f f;
#X obj 466 377 else/pack2 f f f;
#X obj 466 405 expr sqrt($f1*$f1 + $f2*$f2 + $f3*$f3);
#X obj 468 434 s giromin-\$1-a;
#X obj 432 555 expr sqrt(0.7*$f1*$f1 + 0.4*$f2*$f2 + 1.0*$f3*$f3);
#X text 796 528 magnitude ponderada dos giroscopios do punho: pitch>yaw>roll conforme momento de inercia por eixo, f 37;
#X obj 529 7 declare -path ../pd-externals;
#X connect 3 0 4 0;
#X connect 4 0 5 0;
#X connect 5 0 7 0;
#X connect 5 1 30 0;
#X connect 7 0 10 0;
#X connect 7 0 9 0;
#X connect 7 1 18 0;
#X connect 7 2 23 0;
#X connect 7 3 28 0;
#X connect 7 4 29 0;
#X connect 10 0 11 0;
#X connect 10 1 12 0;
#X connect 10 2 13 0;
#X connect 11 0 14 0;
#X connect 12 0 15 0;
#X connect 13 0 16 0;
#X connect 18 0 19 0;
#X connect 18 0 33 0;
#X connect 18 1 20 0;
#X connect 18 1 33 1;
#X connect 18 2 21 0;
#X connect 18 2 33 2;
#X connect 23 0 24 0;
#X connect 23 0 32 0;
#X connect 23 1 25 0;
#X connect 23 1 32 1;
#X connect 23 2 26 0;
#X connect 23 2 32 2;
#X connect 30 0 6 0;
#X connect 32 0 36 0;
#X connect 33 0 34 0;
#X connect 34 0 35 0;
#X connect 36 0 31 0;
