#N canvas 531 266 520 320 12;
#X declare -path ../pd-externals;
#X text 15 10 TESTE: giromin.peak;
#X text 15 30 Mova o slider rapidamente ate passar o threshold para disparar.;
#X text 15 58 --- ENTRADA ---;
#X obj 15 75 hsl 200 15 0 1 0 0 empty empty empty -2 -8 0 10 #dcdcdc #000000 #000000 0 0;
#X floatatom 225 75 8 0 1 0 - - - 0;
#X text 15 108 --- GIROMIN.PEAK (threshold\, debounce ms\, gate ms) ---;
#X obj 15 125 giromin.peak 0.5 100 100;
#X text 15 158 --- PARAMETROS ---;
#X text 15 175 threshold;
#X floatatom 70 175 6 0 1 0 - - - 0;
#X text 130 175 debounce ms;
#X floatatom 210 175 6 0 0 0 - - - 0;
#X text 270 175 gate ms;
#X floatatom 315 175 6 0 0 0 - - - 0;
#X msg 15 210 reset;
#X text 15 240 --- SAIDA (pico norm 0-1\, dura gate ms) ---;
#X floatatom 15 258 8 0 1 0 - - - 0;
#X obj 100 258 else/display;
#X connect 3 0 4 0;
#X connect 3 0 6 0;
#X connect 9 0 6 1;
#X connect 11 0 6 2;
#X connect 13 0 6 3;
#X connect 14 0 6 0;
#X connect 6 0 16 0;
#X connect 6 0 17 0;
