#N canvas 400 200 560 590 12;
#X declare -path ../pd-externals;
#X obj 500 7 declare -path ../pd-externals;
#X text 15 10 GIROMIN - CALIBRACAO;
#X text 15 30 Sensor parado sobre a mesa. Clique [Calibrar].;
#X text 15 50 Offsets salvos em calibracao.txt automaticamente.;
#X obj 15 85 bng 25 250 50 0 empty empty Calibrar 0 -10 0 12 #fcfcfc #000000 #000000;
#X obj 15 115 metro 20;
#X obj 15 145 f 0;
#X obj 70 145 + 1;
#X obj 15 175 sel 100;
#X obj 15 205 t b b;
#X msg 90 205 stop;
#X obj 15 250 r giromin-1-ax;
#X obj 15 280 f 0;
#X obj 133 249 r giromin-1-ay;
#X obj 80 280 f 0;
#X obj 252 249 r giromin-1-az;
#X obj 145 280 f 0;
#X obj 370 248 r giromin-1-gx;
#X obj 230 280 f 0;
#X obj 488 247 r giromin-1-gy;
#X obj 295 280 f 0;
#X obj 603 247 r giromin-1-gz;
#X obj 360 280 f 0;
#X obj 15 315 + 0;
#X obj 80 315 + 0;
#X obj 145 315 + 0;
#X obj 230 315 + 0;
#X obj 295 315 + 0;
#X obj 360 315 + 0;
#X msg 15 350 0;
#X obj 15 380 / 100;
#X obj 80 380 / 100;
#X obj 145 380 / 100;
#X obj 230 380 / 100;
#X obj 295 380 / 100;
#X obj 360 380 / 100;
#X floatatom 15 415 8 -5 5 0 - - - 0;
#X floatatom 80 415 8 -5 5 0 - - - 0;
#X floatatom 145 415 8 -5 5 0 - - - 0;
#X floatatom 230 415 8 -500 500 0 - - - 0;
#X floatatom 295 415 8 -500 500 0 - - - 0;
#X floatatom 360 415 8 -500 500 0 - - - 0;
#X text 15 435 ax;
#X text 80 435 ay;
#X text 145 435 az;
#X text 230 435 gx;
#X text 295 435 gy;
#X text 360 435 gz;
#X obj 15 455 s giromin-offset-ax;
#X obj 165 455 s giromin-offset-ay;
#X obj 315 456 s giromin-offset-az;
#X obj 461 456 s giromin-offset-gx;
#X obj 607 458 s giromin-offset-gy;
#X obj 755 458 s giromin-offset-gz;
#X obj 15 495 pack f f f f f f;
#X obj 15 525 t l b;
#X obj 15 555 textfile;
#X msg 120 555 write calibracao.txt;
#X msg 440 85 0;
#X connect 4 0 58 0;
#X connect 4 0 5 0;
#X connect 5 0 6 1;
#X connect 5 0 12 1;
#X connect 5 0 14 1;
#X connect 5 0 16 1;
#X connect 5 0 18 1;
#X connect 5 0 20 1;
#X connect 5 0 22 1;
#X connect 6 0 7 0;
#X connect 7 0 6 0;
#X connect 7 0 8 0;
#X connect 8 0 9 0;
#X connect 9 0 29 0;
#X connect 9 1 10 0;
#X connect 10 0 5 0;
#X connect 11 0 12 0;
#X connect 12 0 23 0;
#X connect 13 0 14 0;
#X connect 14 0 24 0;
#X connect 15 0 16 0;
#X connect 16 0 25 0;
#X connect 17 0 18 0;
#X connect 18 0 26 0;
#X connect 19 0 20 0;
#X connect 20 0 27 0;
#X connect 21 0 22 0;
#X connect 22 0 28 0;
#X connect 23 0 23 1;
#X connect 23 0 30 0;
#X connect 24 0 24 1;
#X connect 24 0 31 0;
#X connect 25 0 25 1;
#X connect 25 0 32 0;
#X connect 26 0 26 1;
#X connect 26 0 33 0;
#X connect 27 0 27 1;
#X connect 27 0 34 0;
#X connect 28 0 28 1;
#X connect 28 0 35 0;
#X connect 29 0 28 0;
#X connect 29 0 27 0;
#X connect 29 0 26 0;
#X connect 29 0 25 0;
#X connect 29 0 24 0;
#X connect 29 0 23 0;
#X connect 30 0 36 0;
#X connect 30 0 54 0;
#X connect 31 0 37 0;
#X connect 31 0 54 1;
#X connect 32 0 38 0;
#X connect 32 0 54 2;
#X connect 33 0 39 0;
#X connect 33 0 54 3;
#X connect 34 0 40 0;
#X connect 34 0 54 4;
#X connect 35 0 41 0;
#X connect 35 0 54 5;
#X connect 36 0 48 0;
#X connect 37 0 49 0;
#X connect 38 0 50 0;
#X connect 39 0 51 0;
#X connect 40 0 52 0;
#X connect 41 0 53 0;
#X connect 54 0 55 0;
#X connect 55 0 57 0;
#X connect 55 1 56 0;
#X connect 57 0 56 0;
#X connect 58 0 6 0;
#X connect 58 0 23 1;
#X connect 58 0 24 1;
#X connect 58 0 25 1;
#X connect 58 0 26 1;
#X connect 58 0 27 1;
#X connect 58 0 28 1;
