#N canvas 333 478 678 372 12;
#X declare -lib else;
#X declare -path ../pd-externals;
#X declare -path ../pd-externals;
#X declare -path ../pd-externals;
#X declare -path ../pd-externals;
#X declare -path ../pd-externals;
#X declare -path ../pd-externals;
#X declare -path ../pd-externals;
#X declare -path ../pd-externals;
#X declare -path ../pd-externals;
#X declare -path ../pd-externals;
#X declare -path ../pd-externals;
#X declare -path ../pd-externals;
#X declare -path ../pd-externals;
#X declare -path ../pd-externals;
#X declare -path ../pd-externals;
#X declare -path ../pd-externals;
#X declare -path ../pd-externals;
#X declare -path ../pd-externals;
#X declare -path ../pd-externals;
#X declare -path ../pd-externals;
#X declare -path ../pd-externals;
#X declare -path ../pd-externals;
#X declare -path ../pd-externals;
#X declare -path ../pd-externals;
#X declare -path ../pd-externals;
#X declare -path ../pd-externals;
#X declare -path ../pd-externals;
#X declare -path ../pd-externals;
#X declare -path ../pd-externals;
#X declare -path ../pd-externals;
#X declare -path ../pd-externals;
#X declare -path ../pd-externals;
#X declare -path ../pd-externals;
#X declare -path ../pd-externals;
#X declare -path ../pd-externals;
#X declare -path ../pd-externals;
#X declare -path ../pd-externals;
#X declare -path ../pd-externals;
#X declare -path ../pd-externals;
#X declare -path ../pd-externals;
#X declare -path ../pd-externals;
#X declare -path ../pd-externals;
#X declare -path ../pd-externals;
#X declare -path ../pd-externals;
#X declare -path ../pd-externals;
#X declare -path ../pd-externals;
#X declare -path ../pd-externals;
#X declare -path ../pd-externals;
#X text 15 10 GIROMIN-OSC - Receptor OSC central (porta 1333), f 48;
#X text 15 30 Adicionar [giromin-device N] para cada Giromin ativo., f 54;
#X text 15 75 --- OSC ---, f 12;
#X obj 15 95 else/osc.receive 1333;
#X obj 15 125 else/osc.route /giromin;
#X text 15 155 --- DISPOSITIVOS ATIVOS ---, f 29;
#X obj 15 180 giromin-device 25;
#X obj 226 127 print giromin-osc;
#X text 15 50 Ligar o [print giromin-osc] para visualizar no console todas as mensagens OSC recebidas, f 88;
#X obj 519 28 declare -lib else;
#X obj 17 213 giromin-device PREENCHER;
#N canvas 701 76 450 300 mapping1 0;
#X text 15 10 MAPPING 1 - Exemplo de mapeamento Giromin para MIDI;
#X text 15 30 Recebe de [giromin-device]. Editar IDs e CCs conforme necessario.;
#X obj 14 132 r giromin-25-e1;
#X obj 14 160 expr ($f1+1)/2;
#X obj 13 187 clip 0 1;
#X obj 15 216 expr int($f1*127);
#X obj 15 243 ctlout 1 1;
#X obj 190 133 r giromin-25-b1;
#X obj 190 162 > 0.5;
#X obj 191 188 sel 1;
#X obj 192 214 makenote 60 100 250;
#X obj 192 243 noteout 1;
#X obj 359 134 r giromin-26-e2;
#X obj 360 159 expr ($f1+1)/2;
#X obj 360 186 clip 0 1;
#X obj 360 214 expr int($f1*127);
#X obj 360 246 ctlout 2 1;
#X text 14 79 E1 DE GIROMIN 25 (roll\\\, -1 a 1) -> CC MIDI 1\\\, canal 1, f 22;
#X text 197 77 B1 DE GIROMIN 25 (botao) -> NOTA MIDI 60\\\, canal 1, f 17;
#X text 343 79 E2 DE GIROMIN 26 (tilt\\\, -1 a 1) -> CC MIDI 2\\\, canal 1, f 19;
#X obj 458 7 declare -path ../pd-externals;
#X obj 458 7 declare -path ../pd-externals;
#X obj 458 7 declare -path ../pd-externals;
#X obj 458 7 declare -path ../pd-externals;
#X obj 458 7 declare -path ../pd-externals;
#X obj 458 7 declare -path ../pd-externals;
#X obj 458 7 declare -path ../pd-externals;
#X obj 458 7 declare -path ../pd-externals;
#X obj 458 7 declare -path ../pd-externals;
#X obj 458 7 declare -path ../pd-externals;
#X obj 458 7 declare -path ../pd-externals;
#X obj 458 7 declare -path ../pd-externals;
#X connect 2 0 3 0;
#X connect 3 0 4 0;
#X connect 4 0 5 0;
#X connect 5 0 6 0;
#X connect 7 0 8 0;
#X connect 8 0 9 0;
#X connect 9 0 10 0;
#X connect 10 0 11 0;
#X connect 12 0 13 0;
#X connect 13 0 14 0;
#X connect 14 0 15 0;
#X connect 15 0 16 0;
#X restore 21 278 pd mapping1;
#X text 17 244 --- MAPEAMENTOS ATIVOS ---, f 29;
#X text 163 180 Giromin do Braço Direito;
#X text 208 211 Giromin do PREENCHER;
#N canvas 701 76 696 726 mapping2 0;
#X text 15 10 MAPPING 2 - Exemplo de mapeamento Giromin para MIDI;
#X text 15 30 Recebe de [giromin-device]. Editar conforme necessario.;
#X msg 15 91 open;
#X text 61 91 clique para abrir arquivo de audio;
#X msg 413 90 hide;
#X msg 454 89 info;
#X obj 454 114 else/display;
#X text 15 166 --- PLAYER ---;
#X obj 15 186 else/tabplayer~ giromin-buf;
#X obj 124 167 bng 19 250 50 0 empty empty empty 0 -10 0 12 #fcfcfc #000000 #000000;
#X text 15 221 --- TRECHO DE REPRODUCAO ---;
#X text 15 246 inicio;
#X obj 65 246 hsl 150 15 0 1 0 1 empty empty empty -2 -8 0 10 #dcdcdc #000000 #000000 0 0;
#X floatatom 225 246 5 0 0 0 - - - 0;
#X text 15 276 fim;
#X obj 65 276 hsl 150 15 0 1 0 1 empty empty empty -2 -8 0 10 #dcdcdc #000000 #000000 1400 1;
#X floatatom 225 276 5 0 0 0 - - - 0;
#X obj 15 306 else/pack2 0 1;
#X msg 131 306 range \$1 \$2;
#X text 15 341 --- CONTROLE ---;
#X obj 15 361 r giromin-\$1-b1;
#X text 138 361 B1 dispara;
#X obj 230 361 r giromin-\$1-b2;
#X text 354 360 B2 para;
#X obj 15 391 > 0.5;
#X obj 230 391 > 0.5;
#X obj 15 421 sel 1;
#X obj 230 421 sel 1;
#X msg 230 451 stop;
#X obj 430 451 tgl 19 0 empty empty empty 0 -10 0 12 #fcfcfc #000000 #000000 0 1;
#X text 459 451 loop;
#X msg 430 481 loop \$1;
#X text 15 516 --- VELOCIDADE (Euler 1 = roll) ---;
#X text 287 516 --- VOLUME (Euler 2 = tilt) ---;
#X obj 15 536 r giromin-\$1-e1;
#X obj 294 535 r giromin-\$1-e2;
#X obj 15 566 expr $f1 * 28 + 112.5;
#X floatatom 180 566 8 0 0 0 - - - 0;
#X obj 294 565 expr ($f1 + 1) / 2;
#X floatatom 438 565 8 0 0 0 - - - 0;
#X obj 15 596 clip 25 200;
#X obj 294 595 clip 0 1;
#X msg 15 626 speed \$1;
#X text 15 661 --- SAIDA ---;
#X obj 15 681 *~;
#X obj 15 741 dac~;
#X msg 371 91 show;
#X msg 180 674 1;
#X obj 15 711 *~ 0.8;
#X obj 15 126 else/sample~ giromin-buf samples/808.wav;
#X text 15 71 --- CARREGAR SAMPLE ---;
#X obj 458 7 declare -path ../pd-externals;
#X obj 458 7 declare -path ../pd-externals;
#X obj 458 7 declare -path ../pd-externals;
#X obj 458 7 declare -path ../pd-externals;
#X obj 458 7 declare -path ../pd-externals;
#X obj 458 7 declare -path ../pd-externals;
#X obj 458 7 declare -path ../pd-externals;
#X obj 458 7 declare -path ../pd-externals;
#X obj 458 7 declare -path ../pd-externals;
#X obj 458 7 declare -path ../pd-externals;
#X obj 458 7 declare -path ../pd-externals;
#X obj 458 7 declare -path ../pd-externals;
#X obj 458 7 declare -path ../pd-externals;
#X obj 458 7 declare -path ../pd-externals;
#X obj 458 7 declare -path ../pd-externals;
#X obj 458 7 declare -path ../pd-externals;
#X obj 458 7 declare -path ../pd-externals;
#X obj 458 7 declare -path ../pd-externals;
#X obj 458 7 declare -path ../pd-externals;
#X obj 458 7 declare -path ../pd-externals;
#X obj 458 7 declare -path ../pd-externals;
#X obj 458 7 declare -path ../pd-externals;
#X obj 458 7 declare -path ../pd-externals;
#X obj 458 7 declare -path ../pd-externals;
#X obj 458 7 declare -path ../pd-externals;
#X obj 458 7 declare -path ../pd-externals;
#X obj 458 7 declare -path ../pd-externals;
#X obj 458 7 declare -path ../pd-externals;
#X obj 458 7 declare -path ../pd-externals;
#X obj 458 7 declare -path ../pd-externals;
#X obj 458 7 declare -path ../pd-externals;
#X obj 458 7 declare -path ../pd-externals;
#X obj 458 7 declare -path ../pd-externals;
#X obj 458 7 declare -path ../pd-externals;
#X obj 458 7 declare -path ../pd-externals;
#X connect 2 0 49 0;
#X connect 4 0 49 0;
#X connect 5 0 49 0;
#X connect 8 0 44 0;
#X connect 9 0 8 0;
#X connect 12 0 13 0;
#X connect 12 0 17 0;
#X connect 15 0 16 0;
#X connect 15 0 17 1;
#X connect 17 0 18 0;
#X connect 18 0 8 0;
#X connect 20 0 24 0;
#X connect 22 0 25 0;
#X connect 24 0 26 0;
#X connect 25 0 27 0;
#X connect 26 0 8 0;
#X connect 27 0 28 0;
#X connect 28 0 8 0;
#X connect 29 0 31 0;
#X connect 31 0 8 0;
#X connect 34 0 36 0;
#X connect 35 0 38 0;
#X connect 36 0 37 0;
#X connect 36 0 40 0;
#X connect 38 0 39 0;
#X connect 38 0 41 0;
#X connect 40 0 42 0;
#X connect 41 0 44 1;
#X connect 42 0 8 0;
#X connect 44 0 48 0;
#X connect 46 0 49 0;
#X connect 47 0 44 1;
#X connect 48 0 45 0;
#X connect 48 0 45 1;
#X connect 49 0 6 0;
#X restore 116 280 pd mapping2;
#X obj 455 7 declare -path ../pd-externals;
#X connect 3 0 4 0;
#X connect 4 0 6 0;
