#N canvas 484 118 858 560 12;
#X declare -path ../pd-externals;
#X text 15 10 GIROMIN-DEVICE - Roteador OSC por ID, f 180;
#X text 15 30 Arg \$1 = ID do dispositivo. Conectar ao outlet de [else/osc.route /giromin]., f 385;
#X text 15 55 --- ROTEAMENTO ---, f 90;
#X obj 15 70 inlet;
#X obj 15 100 else/osc.route /\$1;
#X text 15 215 --- QUATERNION + EULER ---, f 28;
#X obj 15 264 s giromin-\$1-q;
#X obj 138 240 giromin.angulos xzy, f 37;
#X obj 138 270 / -3.14;
#X obj 266 272 / -3.14;
#X obj 394 272 / -1.57;
#X obj 138 300 s giromin-\$1-e1;
#X obj 265 300 s giromin-\$1-e2;
#X obj 392 300 s giromin-\$1-e3;
#X text 15 330 --- ACELEROMETRO ---, f 22;
#X obj 15 380 s giromin-\$1-ax;
#X obj 145 380 s giromin-\$1-ay;
#X obj 275 380 s giromin-\$1-az;
#X text 19 477 --- GIROSCOPIO ---, f 19;
#X obj 19 527 s giromin-\$1-gx;
#X obj 149 527 s giromin-\$1-gy;
#X obj 279 527 s giromin-\$1-gz;
#X text 19 562 --- BOTOES ---, f 15;
#X obj 19 582 s giromin-\$1-b1;
#X obj 149 582 s giromin-\$1-b2;
#X obj 431 558 s giromin-\$1-g;
#X obj 446 374 expr sqrt($f1*$f1 + $f2*$f2 + $f3*$f3);
#X obj 448 407 s giromin-\$1-a;
#X obj 429 529 expr sqrt(0.7*$f1*$f1 + 0.4*$f2*$f2 + 1.0*$f3*$f3);
#X text 796 528 magnitude ponderada dos giroscopios do punho: pitch>yaw>roll conforme momento de inercia por eixo, f 37;
#X obj 529 7 declare -path ../pd-externals;
#X obj 15 350 unpack f f f, f 38;
#X obj 19 497 unpack f f f, f 37;
#X obj 15 190 else/osc.route /q /a /g /b1 /b2;
#X obj 346 112 unpack f f f;
#X obj 465 113 unpack f f f;
#X obj 348 200 pack f f f f f f, f 29;
#X obj 424 234 giromin.fusao 0.3;
#X obj 350 161 * 200;
#X obj 296 164 * 200;
#X obj 399 158 * 200;
#X obj 632 236 print giromin-\$1;
#X text 620 149 comment;
#X connect 3 0 4 0;
#X connect 4 0 33 0;
#X connect 7 0 8 0;
#X connect 7 1 9 0;
#X connect 7 2 10 0;
#X connect 8 0 11 0;
#X connect 9 0 12 0;
#X connect 10 0 13 0;
#X connect 26 0 27 0;
#X connect 28 0 25 0;
#X connect 31 0 15 0;
#X connect 31 1 16 0;
#X connect 31 2 17 0;
#X connect 32 0 19 0;
#X connect 32 1 20 0;
#X connect 32 2 21 0;
#X connect 33 0 26 0;
#X connect 33 0 6 0;
#X connect 33 1 28 0;
#X connect 33 1 31 0;
#X connect 33 1 35 0;
#X connect 33 2 32 0;
#X connect 33 2 34 0;
#X connect 33 3 23 0;
#X connect 33 4 24 0;
#X connect 34 0 39 0;
#X connect 34 1 38 0;
#X connect 34 2 40 0;
#X connect 35 0 36 3;
#X connect 35 1 36 4;
#X connect 35 2 36 5;
#X connect 36 0 37 0;
#X connect 37 0 7 0;
#X connect 38 0 36 1;
#X connect 39 0 36 0;
#X connect 40 0 36 2;
