#N canvas 100 100 559 295 12;
#X text 15 10 giromin.map — mapeia para [0\\\,1] com range\\\, inversao e auto-range, f 66;
#X text 15 28 Uso: [giromin.map IN_MIN IN_MAX] Inlets frios: in_min (2o) e in_max (3o), f 75;
#X text 15 55 --- ENTRADA ---;
#X obj 15 73 hsl 200 15 -1 1 0 0 empty empty empty -2 -8 0 10 #dcdcdc #000000 #000000 0 0;
#X floatatom 225 73 8 0 0 0 - - - 0;
#X text 15 108 --- MENSAGENS ---;
#X msg 15 126 invert;
#X obj 15 161 giromin.map -1 1;
#X text 11 245 --- SAIDA ---;
#X text 298 264 val [0\\\,1];
#X text 293 191 ar_min;
#X text 295 220 ar_max;
#X text 15 310 autorange: ligue com 1\\\, mova pelo range completo\\\, desligue com 0, f 70;
#X obj 18 195 hsl 200 15 -1 1 0 0 empty empty empty -2 -8 0 10 #dcdcdc #000000 #000000 0 0;
#X floatatom 228 195 8 0 0 0 - - - 0;
#X obj 17 222 hsl 200 15 -1 1 0 0 empty empty empty -2 -8 0 10 #dcdcdc #000000 #000000 0 0;
#X floatatom 227 222 8 0 0 0 - - - 0;
#X obj 16 266 hsl 200 15 0 1 0 0 empty empty empty -2 -8 0 10 #dcdcdc #000000 #000000 0 0;
#X floatatom 226 266 8 0 0 0 - - - 0;
#X msg 134 129 autorange \$1;
#X obj 106 128 tgl 19 0 empty empty empty 0 -10 0 12 #fcfcfc #000000 #000000 0 1;
#X connect 3 0 4 0;
#X connect 3 0 7 0;
#X connect 6 0 7 0;
#X connect 7 0 17 0;
#X connect 7 1 13 0;
#X connect 7 2 15 0;
#X connect 13 0 14 0;
#X connect 14 0 7 1;
#X connect 15 0 16 0;
#X connect 16 0 7 2;
#X connect 17 0 18 0;
#X connect 19 0 7 0;
#X connect 20 0 19 0;
