#N canvas 100 100 695 570 12;
#X text 15 10 giromin.pico — detector de picos locais;
#X text 15 28 Uso: [giromin.pico THRESHOLD DEBOUNCE_MS] Inlets frios: threshold (2o)\, debounce_ms (3o), f 91;
#X text 15 46 Outlet 0: valor do pico. Outlet 1: 0 apos debounce_ms. Mensagem: reset, f 81;
#X text 15 73 --- ENTRADA (mova o slider rapidamente) ---;
#X obj 15 91 hsl 200 15 0 1 0 0 empty empty empty -2 -8 0 10 #dcdcdc #000000 #000000 0 0;
#X floatatom 225 91 8 0 1 0 - - - 0;
#X text 15 126 --- PARAMETROS ---;
#X text 15 146 threshold;
#X floatatom 15 164 6 0 1 0 - - - 0;
#X text 94 146 debounce ms;
#X floatatom 95 164 6 0 0 0 - - - 0;
#X msg 15 199 reset;
#X text 15 269 --- SAIDAS ---;
#X text 15 287 outlet 0: valor do pico;
#X floatatom 15 305 8 0 1 0 - - - 0;
#X obj 89 305 else/display;
#X text 15 330 outlet 1: 0 apos debounce_ms;
#X floatatom 15 348 8 0 0 0 - - - 0;
#X obj 15 234 giromin.pico 0.2 1000;
#X obj 4 378 cnv 3 550 3 empty empty inlets 8 12 0 13 #dcdcdc #000000 0;
#X obj 109 386 cnv 17 3 17 empty empty 0 5 9 0 16 #dcdcdc #9c9c9c 0;
#X text 130 386 float;
#X text 200 386 - valor de entrada;
#X obj 109 406 cnv 17 3 17 empty empty 1 5 9 0 16 #dcdcdc #9c9c9c 0;
#X text 130 406 float;
#X text 200 406 - threshold — valor minimo para considerar pico (padrao 0.5);
#X obj 109 426 cnv 17 3 17 empty empty 2 5 9 0 16 #dcdcdc #9c9c9c 0;
#X text 130 426 float;
#X text 200 426 - debounce_ms — duracao do bloqueio de novos picos em ms (padrao 200);
#X obj 4 456 cnv 3 550 3 empty empty outlets 8 12 0 13 #dcdcdc #000000 0;
#X obj 109 464 cnv 17 3 17 empty empty 0 5 9 0 16 #dcdcdc #9c9c9c 0;
#X text 130 464 float;
#X text 200 464 - valor do pico no momento da detecao;
#X obj 109 484 cnv 17 3 17 empty empty 1 5 9 0 16 #dcdcdc #9c9c9c 0;
#X text 130 484 float;
#X text 200 484 - 0 apos debounce_ms (fim do bloqueio);
#X obj 4 510 cnv 3 550 3 empty empty arguments 8 12 0 13 #dcdcdc #000000 0;
#X text 109 518 1) float - threshold: valor minimo para detectar pico (default: 0.5);
#X text 109 533 2) float - debounce_ms: duracao do bloqueio em ms (default: 200);
#X obj 4 555 cnv 3 550 3 empty empty methods 8 12 0 13 #dcdcdc #000000 0;
#X text 109 563 reset;
#X text 200 563 - reinicia o detector de picos;
#X connect 4 0 5 0;
#X connect 4 0 18 0;
#X connect 8 0 18 1;
#X connect 10 0 18 2;
#X connect 11 0 18 0;
#X connect 18 0 14 0;
#X connect 18 0 15 0;
#X connect 18 1 17 0;
