#N canvas 100 100 643 340 12;
#X text 15 10 giromin.ema — filtro EMA assimetrico;
#X text 15 28 Uso: [giromin.ema RISE FALL] rise/fall em steps (1=sem filtro\\\, maior=mais lento), f 85;
#X text 15 46 Inlets frios: rise (2o) e fall (3o). Mensagem: reset;
#X text 15 73 --- ENTRADA ---;
#X obj 15 91 hsl 200 15 -1 1 0 0 empty empty empty -2 -8 0 10 #dcdcdc #000000 #000000 0 0;
#X floatatom 225 91 8 0 0 0 - - - 0;
#X text 15 126 --- PARAMETROS ---;
#X text 15 146 rise (steps de subida);
#X floatatom 15 164 6 0 0 0 - - - 0;
#X text 188 147 fall (steps de descida);
#X floatatom 192 166 6 0 0 0 - - - 0;
#X msg 15 199 reset;
#X text 15 269 --- SAIDA ---;
#X text 399 294 valor filtrado;
#X text 15 312 rise=1 fall=20: sobe imediato\\\, desce em ~20 steps. Experimente movendo rapido e devagar!;
#X obj 18 291 hsl 200 15 -1 1 0 0 empty empty empty -2 -8 0 10 #dcdcdc #000000 #000000 0 0;
#X floatatom 228 291 8 0 0 0 - - - 0;
#X obj 356 100 metro 10;
#X obj 356 70 tgl 19 0 empty empty empty 0 -10 0 12 #fcfcfc #000000 #000000 0 1;
#X obj 15 234 giromin.ema 1 90;
#X obj 457 100 loadbang;
#X connect 4 0 5 0;
#X connect 4 0 19 0;
#X connect 8 0 19 1;
#X connect 10 0 19 2;
#X connect 11 0 19 0;
#X connect 15 0 16 0;
#X connect 17 0 4 0;
#X connect 18 0 17 0;
#X connect 19 0 15 0;
#X connect 20 0 18 0;
