#N canvas 100 100 643 530 12;
#X text 15 10 giromin.suavizar — filtro EMA assimetrico;
#X text 15 28 Uso: [giromin.suavizar RISE FALL] rise/fall em steps (1=sem filtro\, maior=mais lento), f 85;
#X text 15 46 Inlets frios: rise (2o) e fall (3o). Mensagem: reset;
#X text 15 73 --- ENTRADA ---;
#X obj 15 91 hsl 200 15 -1 1 0 0 empty empty empty -2 -8 0 10 #dcdcdc #000000 #000000 0 0;
#X floatatom 225 91 8 0 0 0 - - - 0;
#X text 15 126 --- PARAMETROS ---;
#X text 15 146 rise (steps de subida);
#X floatatom 15 164 6 0 0 0 - - - 0;
#X text 188 147 fall (steps de descida);
#X floatatom 192 166 6 0 0 0 - - - 0;
#X msg 15 199 reset;
#X text 15 269 --- SAIDA ---;
#X text 399 294 valor filtrado;
#X text 15 312 rise=1 fall=20: sobe imediato\, desce em ~20 steps. Experimente movendo rapido e devagar!;
#X obj 18 291 hsl 200 15 -1 1 0 0 empty empty empty -2 -8 0 10 #dcdcdc #000000 #000000 0 0;
#X floatatom 228 291 8 0 0 0 - - - 0;
#X obj 356 100 metro 10;
#X obj 356 70 tgl 19 0 empty empty empty 0 -10 0 12 #fcfcfc #000000 #000000 0 1;
#X obj 15 234 giromin.suavizar 1 90;
#X obj 457 100 loadbang;
#X obj 4 342 cnv 3 550 3 empty empty inlets 8 12 0 13 #dcdcdc #000000 0;
#X obj 109 350 cnv 17 3 17 empty empty 0 5 9 0 16 #dcdcdc #9c9c9c 0;
#X text 130 350 float;
#X text 200 350 - valor de entrada;
#X obj 109 370 cnv 17 3 17 empty empty 1 5 9 0 16 #dcdcdc #9c9c9c 0;
#X text 130 370 float;
#X text 200 370 - rise — steps para subir (1 = sem filtro\, maior = mais lento);
#X obj 109 390 cnv 17 3 17 empty empty 2 5 9 0 16 #dcdcdc #9c9c9c 0;
#X text 130 390 float;
#X text 200 390 - fall — steps para descer (1 = sem filtro\, maior = mais lento);
#X obj 4 420 cnv 3 550 3 empty empty outlets 8 12 0 13 #dcdcdc #000000 0;
#X obj 109 428 cnv 17 3 17 empty empty 0 5 9 0 16 #dcdcdc #9c9c9c 0;
#X text 130 428 float;
#X text 200 428 - valor filtrado;
#X obj 4 455 cnv 3 550 3 empty empty arguments 8 12 0 13 #dcdcdc #000000 0;
#X text 109 463 1) float - steps de subida / rise (default: 1);
#X text 109 478 2) float - steps de descida / fall (default: 1);
#X obj 4 495 cnv 3 550 3 empty empty methods 8 12 0 13 #dcdcdc #000000 0;
#X text 109 503 reset;
#X text 200 503 - reinicia o filtro para o valor atual;
#X connect 4 0 5 0;
#X connect 4 0 19 0;
#X connect 8 0 19 1;
#X connect 10 0 19 2;
#X connect 11 0 19 0;
#X connect 15 0 16 0;
#X connect 17 0 4 0;
#X connect 18 0 17 0;
#X connect 19 0 15 0;
#X connect 20 0 18 0;
