#N canvas 100 100 520 464 12;
#X text 15 10 giromin.angulos — quaternion -> angulos de Euler Tait-Bryan;
#X text 15 28 Uso: [giromin.angulos ORDER] ORDER: xyz xzy yxz yzx zxy zyx (default: xyz), f 74;
#X text 15 55 --- ENTRADA ---;
#X msg 15 73 list 1 0 0 0;
#X text 117 73 identidade (w=1 x=y=z=0) -> espera-se (0\\\, 0\\\, 0);
#X msg 15 103 list 0.707 0 0 0.707;
#X text 173 103 rotacao 90 graus em Z;
#X text 15 133 --- ORDEM ---;
#X msg 15 151 order xyz;
#X msg 96 151 order yxz;
#X msg 177 151 order zyx;
#X obj 15 186 giromin.angulos xyz;
#X text 15 215 --- SAIDA (radianos) ---;
#X floatatom 15 233 8 0 0 0 - - - 0;
#X floatatom 89 233 8 0 0 0 - - - 0;
#X floatatom 163 233 8 0 0 0 - - - 0;
#X text 10 258 first [-pi\\\,pi], f 9;
#X text 86 256 last [-pi\\\,pi], f 9;
#X text 161 255 mid [-pi/2\\\,pi/2], f 14;
#X text 14 298 Para XYZ: first=roll last=yaw mid=pitch (suscetivel a gimbal lock), f 68;
#X obj 4 328 cnv 3 550 3 empty empty inlets 8 12 0 13 #dcdcdc #000000 0;
#X obj 109 336 cnv 17 3 17 empty empty 0 5 9 0 16 #dcdcdc #9c9c9c 0;
#X text 130 336 list;
#X text 200 336 - quaternion: w x y z (4 floats);
#X obj 4 366 cnv 3 550 3 empty empty outlets 8 12 0 13 #dcdcdc #000000 0;
#X obj 109 374 cnv 17 3 17 empty empty 0 5 9 0 16 #dcdcdc #9c9c9c 0;
#X text 130 374 float;
#X text 200 374 - primeiro angulo da ordem escolhida [-pi\, pi];
#X obj 109 394 cnv 17 3 17 empty empty 1 5 9 0 16 #dcdcdc #9c9c9c 0;
#X text 130 394 float;
#X text 200 394 - ultimo angulo da ordem escolhida [-pi\, pi];
#X obj 109 414 cnv 17 3 17 empty empty 2 5 9 0 16 #dcdcdc #9c9c9c 0;
#X text 130 414 float;
#X text 200 414 - angulo do meio — eixo gimbal [-pi/2\, pi/2];
#X connect 3 0 11 0;
#X connect 5 0 11 0;
#X connect 8 0 11 0;
#X connect 9 0 11 0;
#X connect 10 0 11 0;
#X connect 11 0 13 0;
#X connect 11 1 14 0;
#X connect 11 2 15 0;

