#N canvas 100 100 520 295 12;
#X text 15 10 giromin.phase — deslocamento de fase ciclica;
#X text 15 28 Uso: [giromin.phase AMPLITUDE] default: 1 (range [-1\\\,1]\\\, periodo 2), f 71;
#X text 15 46 Inlet frio: amplitude. Para Euler em rad: [giromin.phase 3.14159], f 69;
#X text 15 73 --- ENTRADA ---;
#X obj 15 91 hsl 200 15 -1 1 0 0 empty empty empty -2 -8 0 10 #dcdcdc #000000 #000000 0 0;
#X floatatom 225 91 8 0 0 0 - - - 0;
#X text 15 126 --- MENSAGENS ---;
#X msg 15 144 center;
#X msg 75 144 center 0;
#X obj 15 179 giromin.phase;
#X text 15 214 --- SAIDA ---;
#X text 289 232 delta em [-amplitude\\\, amplitude];
#X text 15 257 Calibre o centro na posicao de repouso. O salto vai para o lado oposto., f 72;
#X obj 16 235 hsl 200 15 -1 1 0 0 empty empty empty -2 -8 0 10 #dcdcdc #000000 #000000 0 0;
#X floatatom 224 235 8 0 0 0 - - - 0;
#X connect 4 0 5 0;
#X connect 4 0 9 0;
#X connect 7 0 9 0;
#X connect 8 0 9 0;
#X connect 9 0 13 0;
#X connect 13 0 14 0;
