#N canvas 100 100 520 320 12;
#X text 15 10 giromin.euler — quaternion -> angulos de Euler Tait-Bryan;
#X text 15 28 Uso: [giromin.euler ORDER] ORDER: xyz xzy yxz yzx zxy zyx (default: xyz), f 74;
#X text 15 55 --- ENTRADA ---;
#X msg 15 73 list 1 0 0 0;
#X text 117 73 identidade (w=1 x=y=z=0) -> espera-se (0\\\, 0\\\, 0);
#X msg 15 103 list 0.707 0 0 0.707;
#X text 173 103 rotacao 90 graus em Z;
#X text 15 133 --- ORDEM ---;
#X msg 15 151 order xyz;
#X msg 96 151 order yxz;
#X msg 177 151 order zyx;
#X obj 15 186 giromin.euler xyz;
#X text 15 215 --- SAIDA (radianos) ---;
#X floatatom 15 233 8 0 0 0 - - - 0;
#X floatatom 89 233 8 0 0 0 - - - 0;
#X floatatom 163 233 8 0 0 0 - - - 0;
#X text 10 258 first [-pi\\\,pi], f 9;
#X text 86 256 last [-pi\\\,pi], f 9;
#X text 161 255 mid [-pi/2\\\,pi/2], f 14;
#X text 14 298 Para XYZ: first=roll last=yaw mid=pitch (suscetivel a gimbal lock), f 68;
#X connect 3 0 11 0;
#X connect 5 0 11 0;
#X connect 8 0 11 0;
#X connect 9 0 11 0;
#X connect 10 0 11 0;
#X connect 11 0 13 0;
#X connect 11 1 14 0;
#X connect 11 2 15 0;
